<svg xmlns="http://www.w3.org/2000/svg" viewBox="0 0 512 512" fill-rule="nonzero">
<rect width="512" height="512" rx="112" fill="#0d0d0d"/>
<g transform="translate(28,-31) scale(0.72)" fill="#ff5100">
<path d="M 275.1875 295.167969 C 226.722656 303.382812 240.414062 384.601562 293.632812 370.886719 C 340.050781 358.925781 326.449219 286.480469 275.1875 295.167969 M 303.53125 373.765625 C 331.421875 369.117188 356.820312 354.113281 376.019531 333.683594 C 358.675781 312.671875 331.65625 297.90625 304.800781 293.605469 C 305.335938 295.691406 308.515625 295.757812 310.535156 297.402344 C 332.238281 315.058594 334.121094 345.191406 314.84375 365.371094 Z M 261.511719 293.605469 C 235.410156 298.308594 208.328125 312.8125 191.609375 333.511719 C 208.941406 353.503906 233.96875 368.097656 260.246094 372.492188 C 257.1875 368.507812 252.714844 366.210938 249.417969 362.335938 C 234.316406 344.613281 235.242188 317.496094 251.914062 301.171875 C 254.773438 298.371094 259.136719 296.667969 261.511719 293.605469 M 120.242188 581.242188 L 120.242188 502.332031 C 126.273438 505.722656 132.929688 508.136719 139.921875 508.742188 L 382.933594 508.558594 C 430.371094 500.820312 431.617188 435.074219 384.207031 426.101562 L 138.648438 425.917969 C 131.929688 426.378906 125.78125 428.703125 120.242188 432.328125 L 120.242188 218.5 L 318.21875 218.4375 C 440.738281 220.351562 528.355469 295.816406 514.792969 424.042969 C 502.464844 540.652344 413.390625 577.953125 308.039062 581.304688 C 245.574219 583.289062 182.722656 579.691406 120.242188 581.242188 "/>
<path d="M 215.699219 441.238281 L 215.699219 462.875 L 204.246094 462.875 L 204.246094 494.695312 L 177.515625 494.695312 L 177.515625 462.875 L 167.332031 462.875 L 167.332031 441.238281 Z M 215.699219 441.238281 "/>
<path d="M 295.875 311.429688 L 286.386719 315.273438 C 279.007812 323.824219 292.519531 337.160156 300.84375 327.191406 L 303.527344 318.398438 C 323.707031 346.277344 279.785156 375.230469 262.75 346.457031 C 249.222656 323.613281 272.902344 300.496094 295.875 311.429688 "/>
<path d="M 243.015625 478.609375 L 243.015625 473.472656 L 256.4375 473.472656 L 256.449219 462.464844 L 243.015625 462.464844 L 243.015625 457.328125 L 260.253906 457.328125 L 260.246094 441.238281 L 218.246094 441.238281 L 218.246094 494.695312 L 260.246094 494.695312 L 260.246094 478.609375 Z M 243.015625 478.609375 "/>
<path d="M 297.792969 469.238281 C 297.734375 469.238281 297.601562 469.3125 297.410156 469.433594 C 296.679688 471.222656 294.925781 472.484375 292.875 472.484375 C 290.164062 472.484375 287.964844 470.285156 287.964844 467.578125 C 287.964844 464.867188 290.164062 462.671875 292.875 462.671875 C 294.589844 462.671875 296.097656 463.554688 296.972656 464.890625 L 323.335938 464.890625 C 323.636719 461.570312 321.167969 454.683594 320.328125 453.066406 C 310.070312 433.324219 270.96875 435.289062 264.40625 458.75 C 252.367188 501.792969 320.707031 511.351562 323.886719 469.238281 Z M 297.792969 469.238281 "/>
<path d="M 358.5625 441.238281 L 358.5625 457.597656 L 352.808594 457.597656 L 352.808594 441.238281 L 327.707031 441.238281 L 327.707031 494.695312 L 352.808594 494.695312 L 352.808594 477.648438 L 358.5625 477.648438 L 358.5625 494.695312 L 384.980469 494.695312 L 384.980469 441.238281 Z M 358.5625 441.238281 "/>
</g>
</svg>
