<svg xmlns="http://www.w3.org/2000/svg" xmlns:xlink="http://www.w3.org/1999/xlink" viewBox="108 208 432 494" fill="currentColor" fill-rule="nonzero">
<defs>
<g>
<g id="g0"><path d="M 4.59375 -18.40625 C 5.875 -9.203125 12.140625 0.78125 29.265625 0.78125 C 45.125 0.78125 52.46875 -7.921875 52.46875 -18.015625 C 52.46875 -26.234375 49.625 -33.96875 30.34375 -38.765625 C 17.71875 -41.890625 13.21875 -44.828125 13.21875 -52.359375 C 13.21875 -60 18.59375 -64.59375 28.484375 -64.59375 C 39.25 -64.59375 44.046875 -59.3125 45.609375 -51.96875 L 51.09375 -51.96875 C 50.203125 -60.296875 43.84375 -69.484375 28.78125 -69.484375 C 14.09375 -69.484375 7.53125 -61.078125 7.53125 -52.0625 C 7.53125 -42.1875 13.796875 -37.484375 28.28125 -33.859375 C 43.359375 -30.140625 46.78125 -25.34375 46.78125 -17.625 C 46.78125 -10.171875 41.984375 -3.921875 29.453125 -3.921875 C 18.203125 -3.921875 12.140625 -9.296875 10.078125 -18.40625 Z M 4.59375 -18.40625 "/></g>
<g id="g1"><path d="M 23.59375 0 L 28.96875 0 L 28.96875 -63.625 L 52.0625 -63.625 L 52.0625 -68.515625 L 0.59375 -68.515625 L 0.59375 -63.625 L 23.59375 -63.625 Z M 23.59375 0 "/></g>
<g id="g2"><path d="M 9.203125 -68.515625 L 9.203125 -26.421875 C 9.203125 -6.5625 20.9375 0.78125 34.453125 0.78125 C 48.640625 0.78125 60 -5.875 60 -27.3125 L 60 -68.515625 L 54.609375 -68.515625 L 54.609375 -27.015625 C 54.609375 -8.90625 46.09375 -4.109375 34.640625 -4.109375 C 24.953125 -4.109375 14.6875 -8.8125 14.6875 -27.015625 L 14.6875 -68.515625 Z M 9.203125 -68.515625 "/></g>
<g id="g3"><path d="M 9.59375 0 L 32.203125 0 C 51.390625 0 64.109375 -14.390625 64.109375 -34.84375 C 64.109375 -55.390625 51.09375 -68.515625 32.296875 -68.515625 L 9.59375 -68.515625 Z M 14.875 -63.625 L 31.421875 -63.625 C 50.40625 -63.625 58.4375 -49.625 58.4375 -34.546875 C 58.4375 -17.625 49.53125 -4.890625 31.421875 -4.890625 L 14.875 -4.890625 Z M 14.875 -63.625 "/></g>
<g id="g4"><path d="M 9.59375 -68.515625 L 9.59375 0 L 14.875 0 L 14.875 -68.515625 Z M 9.59375 -68.515625 "/></g>
<g id="g5"><path d="M 36.703125 -69.484375 C 16.34375 -69.484375 5.484375 -53.640625 5.484375 -34.25 C 5.484375 -14.578125 16.734375 0.984375 36.015625 0.984375 C 57.15625 0.984375 67.140625 -16.046875 67.140625 -34.75 C 67.140625 -54.71875 55.5 -69.484375 36.703125 -69.484375 Z M 36.5 -64.59375 C 53.046875 -64.59375 61.46875 -50.59375 61.46875 -34.640625 C 61.46875 -18.40625 54.03125 -3.921875 36.3125 -3.921875 C 19.875 -3.921875 11.15625 -18.796875 11.15625 -34.546875 C 11.15625 -50.015625 18.890625 -64.59375 36.5 -64.59375 Z M 36.5 -64.59375 "/></g>
</g>
</defs>
<path d="M 275.1875 295.167969 C 226.722656 303.382812 240.414062 384.601562 293.632812 370.886719 C 340.050781 358.925781 326.449219 286.480469 275.1875 295.167969 M 303.53125 373.765625 C 331.421875 369.117188 356.820312 354.113281 376.019531 333.683594 C 358.675781 312.671875 331.65625 297.90625 304.800781 293.605469 C 305.335938 295.691406 308.515625 295.757812 310.535156 297.402344 C 332.238281 315.058594 334.121094 345.191406 314.84375 365.371094 Z M 261.511719 293.605469 C 235.410156 298.308594 208.328125 312.8125 191.609375 333.511719 C 208.941406 353.503906 233.96875 368.097656 260.246094 372.492188 C 257.1875 368.507812 252.714844 366.210938 249.417969 362.335938 C 234.316406 344.613281 235.242188 317.496094 251.914062 301.171875 C 254.773438 298.371094 259.136719 296.667969 261.511719 293.605469 M 120.242188 581.242188 L 120.242188 502.332031 C 126.273438 505.722656 132.929688 508.136719 139.921875 508.742188 L 382.933594 508.558594 C 430.371094 500.820312 431.617188 435.074219 384.207031 426.101562 L 138.648438 425.917969 C 131.929688 426.378906 125.78125 428.703125 120.242188 432.328125 L 120.242188 218.5 L 318.21875 218.4375 C 440.738281 220.351562 528.355469 295.816406 514.792969 424.042969 C 502.464844 540.652344 413.390625 577.953125 308.039062 581.304688 C 245.574219 583.289062 182.722656 579.691406 120.242188 581.242188 "/>
<path d="M 215.699219 441.238281 L 215.699219 462.875 L 204.246094 462.875 L 204.246094 494.695312 L 177.515625 494.695312 L 177.515625 462.875 L 167.332031 462.875 L 167.332031 441.238281 Z M 215.699219 441.238281 "/>
<path d="M 295.875 311.429688 L 286.386719 315.273438 C 279.007812 323.824219 292.519531 337.160156 300.84375 327.191406 L 303.527344 318.398438 C 323.707031 346.277344 279.785156 375.230469 262.75 346.457031 C 249.222656 323.613281 272.902344 300.496094 295.875 311.429688 "/>
<path d="M 243.015625 478.609375 L 243.015625 473.472656 L 256.4375 473.472656 L 256.449219 462.464844 L 243.015625 462.464844 L 243.015625 457.328125 L 260.253906 457.328125 L 260.246094 441.238281 L 218.246094 441.238281 L 218.246094 494.695312 L 260.246094 494.695312 L 260.246094 478.609375 Z M 243.015625 478.609375 "/>
<path d="M 297.792969 469.238281 C 297.734375 469.238281 297.601562 469.3125 297.410156 469.433594 C 296.679688 471.222656 294.925781 472.484375 292.875 472.484375 C 290.164062 472.484375 287.964844 470.285156 287.964844 467.578125 C 287.964844 464.867188 290.164062 462.671875 292.875 462.671875 C 294.589844 462.671875 296.097656 463.554688 296.972656 464.890625 L 323.335938 464.890625 C 323.636719 461.570312 321.167969 454.683594 320.328125 453.066406 C 310.070312 433.324219 270.96875 435.289062 264.40625 458.75 C 252.367188 501.792969 320.707031 511.351562 323.886719 469.238281 Z M 297.792969 469.238281 "/>
<path d="M 358.5625 441.238281 L 358.5625 457.597656 L 352.808594 457.597656 L 352.808594 441.238281 L 327.707031 441.238281 L 327.707031 494.695312 L 352.808594 494.695312 L 352.808594 477.648438 L 358.5625 477.648438 L 358.5625 494.695312 L 384.980469 494.695312 L 384.980469 441.238281 Z M 358.5625 441.238281 "/>
<use xlink:href="#g0" x="115.590414" y="687.98871"/>
<use xlink:href="#g1" x="173.046533" y="687.98871"/>
<use xlink:href="#g2" x="226.881058" y="687.98871"/>
<use xlink:href="#g3" x="296.474415" y="687.98871"/>
<use xlink:href="#g4" x="366.067773" y="687.98871"/>
<use xlink:href="#g5" x="462.872035" y="687.98871"/>
</svg>
